<svg width="280" height="86" viewBox="0 0 280 86" fill="none" xmlns="http://www.w3.org/2000/svg">
<g clip-path="url(#clip0_66_1145)">
<path d="M0 76.9254C1.21499 74.0914 2.48521 71.2847 3.64497 68.4371C11.7495 48.6675 19.8264 28.8978 27.9172 9.14182C28.0966 8.6922 28.3176 8.2562 28.6627 7.50684C38.0927 30.8326 47.426 53.8994 56.8146 77.1434H49.7041C47.9783 72.8924 46.1834 68.587 44.4852 64.227C44.0848 63.1916 43.5878 62.8782 42.4694 62.8782C33.1499 62.9327 23.8166 62.9327 14.497 62.8782C13.3511 62.8782 12.8817 63.2461 12.4951 64.2543C10.9487 68.2055 9.25049 72.0886 7.71795 76.0398C7.33136 77.0344 6.82051 77.3341 5.78501 77.2796C3.85207 77.1979 1.91913 77.2524 0 77.2524L0 76.9254ZM41.2821 56.3246C37.0434 45.8471 32.8876 35.5468 28.5937 24.9466C24.2584 35.5604 20.0335 45.8744 15.7535 56.3246H41.2682H41.2821Z" fill="black"/>
<path d="M105.469 16.091C104.047 17.8758 102.763 19.4836 101.41 21.2003C98.1928 18.8432 94.7412 17.1265 90.8891 16.1591C75.2461 12.2488 59.5203 22.1813 56.3861 38.0133C53.3487 53.3277 64.4216 68.3831 80.2303 70.4541C87.2579 71.367 93.7057 69.8819 99.6011 66.0805C100.084 65.7671 100.678 65.1404 100.678 64.6499C100.747 58.5732 100.719 52.5102 100.719 46.2155H78.4354V39.7164H106.85C108.506 28.3397 114.057 19.5381 124.053 13.7066C131.108 9.59193 138.785 8.28394 146.848 9.51018C163.002 11.9626 175.483 25.7101 176.035 41.5694C176.629 58.2326 165.735 72.5932 149.443 76.3537C140.11 78.5064 131.232 77.1439 123.073 72.1027C114.94 67.0888 109.901 59.8131 107.305 50.7526C107.305 55.6166 107.14 60.4807 107.374 65.3175C107.499 67.7972 106.601 69.2279 104.627 70.6448C83.6406 85.6867 53.9562 73.7104 49.7037 48.4227C45.9897 26.3096 65.1396 6.48546 87.7412 9.00606C94.2579 9.72817 100.084 12.0171 105.441 16.0773L105.469 16.091ZM113.38 43.2453C113.394 58.4915 125.903 70.8083 141.38 70.822C156.94 70.8492 169.491 58.4915 169.491 43.1772C169.491 27.9446 156.954 15.6005 141.504 15.5869C125.972 15.5732 113.366 27.9582 113.394 43.2453H113.38Z" fill="black"/>
<path d="M184.541 54.4996V77.1304H177.969V8.91084C178.383 8.86997 178.756 8.80184 179.115 8.80184C187.385 8.80184 195.669 8.73372 203.939 8.81547C215.109 8.92447 224.373 16.6225 226.486 27.4406C228.695 38.6947 221.902 49.9625 210.787 53.4232C210.18 53.6139 209.558 53.7911 208.73 54.0499C213.866 60.6852 218.892 67.1843 224.138 73.9831C233.251 51.7337 242.253 29.7432 251.393 7.41211C260.85 30.806 270.184 53.8864 279.586 77.1304H272.476C270.736 72.8658 268.941 68.5468 267.257 64.2004C266.856 63.1513 266.332 62.8652 265.227 62.8652C255.908 62.9061 246.588 62.9197 237.255 62.8652C236.109 62.8652 235.653 63.2603 235.253 64.2549C233.72 68.1517 232.063 71.9939 230.531 75.8769C230.144 76.8443 229.716 77.3212 228.543 77.2803C225.574 77.1713 222.578 77.3075 219.61 77.1985C218.919 77.1713 218.022 76.7489 217.608 76.2176C212.278 69.4324 206.99 62.6063 201.744 55.753C201.04 54.8402 200.336 54.4451 199.148 54.4587C194.357 54.5268 189.566 54.4859 184.527 54.4859L184.541 54.4996ZM184.582 47.8643C191.872 47.8643 198.969 47.8643 206.065 47.8643L206.397 47.8098C214.985 46.311 220.935 38.8446 220.231 30.4517C219.499 21.8544 212.513 15.4235 203.746 15.3418C197.795 15.2873 191.844 15.3281 185.894 15.3418C185.48 15.3418 185.065 15.4099 184.596 15.4508V47.8779L184.582 47.8643ZM251.365 24.9473C247.016 35.5883 242.791 45.9023 238.566 56.2572H264.026C259.815 45.8342 255.673 35.5883 251.365 24.9473Z" fill="black"/>
<path d="M137.046 63.6823C151.902 65.8759 162.064 55.3984 162.478 43.9944C162.933 31.337 151.419 20.3281 137.156 22.8078C137.156 21.3908 137.06 20.0011 137.225 18.6522C137.267 18.3252 138.164 17.9165 138.703 17.8484C150.687 16.4723 162.298 23.8433 166.095 35.1928C172.004 52.8915 157.535 70.5901 138.689 68.7644C137.322 68.6282 136.866 68.1649 137.018 66.8569C137.129 65.8487 137.046 64.8268 137.046 63.6823Z" fill="black"/>
<path d="M133.222 18.6523V67.2658C130.074 66.6663 129.949 66.53 129.949 63.5462C129.949 49.9759 129.922 36.4191 129.922 22.8488C129.922 20.7778 131.022 19.379 133.222 18.6523Z" fill="black"/>
<path d="M125.971 22.9574V63.9273C124.08 62.4149 122.589 61.216 122.644 58.5046C122.837 47.9726 122.768 37.4406 122.658 26.9222C122.63 24.6196 124.632 24.1564 125.599 22.7803C125.723 22.8484 125.847 22.9029 125.971 22.971V22.9574Z" fill="black"/>
<path d="M118.696 55.8619C114.126 49.0631 114.154 36.6781 118.696 30.8467V55.8619Z" fill="black"/>
</g>
<defs>
<clipPath id="clip0_66_1145">
<rect width="280" height="86" fill="white"/>
</clipPath>
</defs>
</svg>
