<svg width="448" height="139" viewBox="0 0 448 139" fill="none" xmlns="http://www.w3.org/2000/svg">
<g clip-path="url(#clip0_66_1110)">
<path d="M0 124.334C1.94398 119.753 3.97633 115.217 5.83195 110.614C18.7992 78.6609 31.7223 46.7076 44.6675 14.7764C44.9546 14.0497 45.3081 13.345 45.8604 12.1338C60.9483 49.8347 75.8817 87.1172 90.9034 124.686H79.5266C76.7653 117.815 73.8935 110.856 71.1763 103.809C70.5357 102.136 69.7404 101.629 67.9511 101.629C53.0398 101.717 38.1065 101.717 23.1953 101.629C21.3617 101.629 20.6107 102.224 19.9921 103.854C17.518 110.24 14.8008 116.516 12.3487 122.902C11.7302 124.51 10.9128 124.994 9.25602 124.906C6.16331 124.774 3.07061 124.862 0 124.862L0 124.334ZM66.0513 91.037C59.2694 74.1024 52.6201 57.4541 45.7499 40.3214C38.8134 57.4762 32.0536 74.1465 25.2055 91.037H66.0292H66.0513Z" fill="#E6D9AE"/>
<path d="M168.751 26.007C166.476 28.8918 164.421 31.4904 162.256 34.2651C157.109 30.4554 151.587 27.6806 145.423 26.1171C120.395 19.7969 95.2332 35.8506 90.2186 61.4397C85.3586 86.1919 103.075 110.526 128.369 113.873C139.613 115.348 149.93 112.948 159.363 106.804C160.136 106.298 161.086 105.285 161.086 104.492C161.196 94.6702 161.152 84.8706 161.152 74.6966H125.497V64.1924H170.96C173.611 45.8044 182.492 31.5785 198.485 22.1532C209.774 15.5027 222.056 13.3887 234.957 15.3706C260.803 19.3345 280.773 41.5542 281.657 67.1873C282.607 94.1196 265.177 117.33 239.11 123.408C224.177 126.888 209.972 124.686 196.917 116.538C183.905 108.434 175.842 96.6741 171.689 82.0298C171.689 89.8915 171.424 97.7532 171.8 105.571C171.998 109.579 170.563 111.891 167.404 114.181C133.826 138.493 86.3306 119.136 79.5267 78.2641C73.5843 42.5232 104.224 10.4818 140.387 14.5558C150.813 15.7229 160.136 19.4226 168.707 25.985L168.751 26.007ZM181.409 69.8959C181.431 94.5381 201.445 114.446 226.209 114.468C251.105 114.512 271.186 94.5381 271.186 69.7858C271.186 45.1658 251.127 25.2142 226.408 25.1922C201.556 25.1702 181.387 45.1878 181.431 69.8959H181.409Z" fill="#E6D9AE"/>
<path d="M295.265 88.086V124.664H284.75V14.4019C285.413 14.3358 286.009 14.2257 286.584 14.2257C299.816 14.2257 313.07 14.1156 326.303 14.2477C344.174 14.4239 358.997 26.8661 362.377 44.3512C365.911 62.541 355.043 80.7528 337.26 86.3463C336.288 86.6546 335.294 86.9408 333.968 87.3592C342.186 98.0837 350.227 108.588 358.621 119.577C373.201 83.6156 387.604 48.0728 402.229 11.9795C417.361 49.7905 432.294 87.095 447.338 124.664H435.961C433.178 117.771 430.306 110.79 427.611 103.765C426.97 102.07 426.131 101.607 424.363 101.607C409.452 101.673 394.541 101.695 379.608 101.607C377.774 101.607 377.045 102.246 376.404 103.853C373.952 110.152 371.301 116.362 368.849 122.638C368.231 124.201 367.546 124.972 365.668 124.906C360.919 124.73 356.125 124.95 351.376 124.774C350.271 124.73 348.835 124.047 348.173 123.188C339.645 112.222 331.185 101.189 322.79 90.1119C321.664 88.6365 320.537 87.9979 318.637 88.0199C310.972 88.13 303.306 88.0639 295.243 88.0639L295.265 88.086ZM295.331 77.3615C306.995 77.3615 318.35 77.3615 329.705 77.3615L330.235 77.2734C343.975 74.851 353.496 62.7832 352.37 49.2179C351.199 35.3223 340.021 24.9282 325.993 24.796C316.472 24.7079 306.951 24.774 297.43 24.796C296.767 24.796 296.105 24.9061 295.354 24.9722V77.3835L295.331 77.3615ZM402.184 40.3212C395.226 57.52 388.466 74.1904 381.706 90.9267H422.442C415.704 74.0803 409.077 57.52 402.184 40.3212Z" fill="#E6D9AE"/>
<path d="M219.272 102.929C243.042 106.474 259.301 89.5397 259.964 71.1077C260.693 50.6497 242.269 32.8563 219.449 36.8642C219.449 34.5739 219.295 32.3277 219.56 30.1476C219.626 29.6191 221.062 28.9584 221.923 28.8483C241.098 26.6242 259.676 38.5378 265.751 56.8818C275.206 85.4878 252.055 114.094 221.901 111.143C219.714 110.923 218.985 110.174 219.228 108.06C219.405 106.43 219.272 104.779 219.272 102.929Z" fill="#E6D9AE"/>
<path d="M213.153 30.1475V108.72C208.116 107.751 207.917 107.531 207.917 102.708C207.917 80.775 207.873 58.8636 207.873 36.9301C207.873 33.5828 209.633 31.3219 213.153 30.1475Z" fill="#E6D9AE"/>
<path d="M201.557 37.1066V103.325C198.53 100.881 196.144 98.9431 196.233 94.5608C196.542 77.5382 196.432 60.5155 196.255 43.5149C196.211 39.7932 199.414 39.0445 200.96 36.8203C201.159 36.9304 201.358 37.0185 201.557 37.1286V37.1066Z" fill="#E6D9AE"/>
<path d="M189.915 90.288C182.603 79.2993 182.647 59.2817 189.915 49.8564V90.288Z" fill="#E6D9AE"/>
</g>
<defs>
<clipPath id="clip0_66_1110">
<rect width="448" height="139" fill="white"/>
</clipPath>
</defs>
</svg>
